<svg width="64" height="58" viewBox="0 0 64 58" fill="none" xmlns="http://www.w3.org/2000/svg">
<ellipse cx="35.052" cy="30.3077" rx="28.0519" ry="27.6923" fill="#0e0e0e"/>
<ellipse cx="28.9481" cy="27.6923" rx="28.0519" ry="27.6923" fill="#2f2f2f"/>
<path d="M29.92 20.92C29.8 21.3 29.72 21.66 29.64 21.98C29.26 23.84 28.92 26.72 28.92 29.2C28.92 32.36 29.5 34.6 30.16 36.62L27.86 37.3C27.26 35.5 26.68 32.54 26.68 29.6C26.68 26.98 27.04 24.04 27.26 22.06C27.3 21.66 27.34 21.2 27.32 20.84L29.92 20.92ZM26.34 23.12C30.14 23.12 33.16 22.94 36.22 22.2L36.24 24.5C33.5 25 29.3 25.3 26.28 25.3C25.22 25.3 23.66 25.2 22.72 25.16L22.66 22.86C23.38 22.96 25.12 23.12 26.34 23.12ZM34.98 26.06C34.82 26.42 34.52 27.34 34.38 27.76C33.24 31.36 31.18 34.06 29.28 35.46C27.98 36.42 26.24 37.3 24.5 37.3C23.04 37.3 21.82 36.42 21.82 34.38C21.82 31.56 24.34 28.62 27.52 27.46C28.84 26.98 30.48 26.68 31.98 26.68C35.72 26.68 38.48 28.84 38.48 31.96C38.48 34.8 36.8 37.54 31.9 38.3L30.56 36.18C34.42 35.76 36 33.82 36 31.84C36 30.14 34.54 28.7 31.84 28.7C30.02 28.7 28.58 29.22 27.6 29.66C25.6 30.6 24.18 32.52 24.18 33.86C24.18 34.52 24.44 34.86 25.1 34.86C26.04 34.86 27.38 34.2 28.6 33.06C30.06 31.72 31.42 29.94 32.22 27.18C32.36 26.76 32.5 25.9 32.52 25.46L34.98 26.06Z" fill="white"/>
</svg>
