<svg width="225" height="53" viewBox="0 0 225 53" fill="none" xmlns="http://www.w3.org/2000/svg">
<path d="M112.072 25.224C110.52 25.224 108.856 24.648 107.624 23.512L109.256 21.544C110.088 22.264 111.192 22.76 112.136 22.76C113.192 22.76 113.688 22.36 113.688 21.72C113.688 21.032 113.032 20.808 112.008 20.376L110.488 19.736C109.24 19.24 108.072 18.2 108.072 16.472C108.072 14.472 109.864 12.872 112.392 12.872C113.768 12.872 115.224 13.4 116.264 14.44L114.84 16.232C114.056 15.64 113.32 15.32 112.392 15.32C111.512 15.32 110.984 15.672 110.984 16.296C110.984 16.968 111.72 17.224 112.776 17.64L114.264 18.232C115.736 18.824 116.616 19.816 116.616 21.496C116.616 23.48 114.952 25.224 112.072 25.224ZM123.507 25.224C120.259 25.224 118.051 22.888 118.051 18.984C118.051 15.08 120.259 12.872 123.507 12.872C126.755 12.872 128.963 15.096 128.963 18.984C128.963 22.888 126.755 25.224 123.507 25.224ZM123.507 22.76C125.075 22.76 126.051 21.288 126.051 18.984C126.051 16.68 125.075 15.32 123.507 15.32C121.939 15.32 120.979 16.68 120.979 18.984C120.979 21.288 121.939 22.76 123.507 22.76ZM135.941 25.224C132.757 25.224 131.109 23.416 131.109 19.4V13.08H133.957V19.704C133.957 21.96 134.629 22.76 135.941 22.76C137.237 22.76 137.957 21.96 137.957 19.704V13.08H140.709V19.4C140.709 23.416 139.109 25.224 135.941 25.224ZM143.376 25V13.08H146.288L149.248 18.792L150.416 21.432H150.496C150.352 20.168 150.112 18.456 150.112 17.032V13.08H152.832V25H149.92L146.976 19.256L145.808 16.648H145.728C145.856 17.976 146.096 19.608 146.096 21.048V25H143.376ZM155.595 25V13.08H159.019C162.651 13.08 165.051 14.84 165.051 18.984C165.051 23.128 162.651 25 159.179 25H155.595ZM158.459 22.696H158.843C160.763 22.696 162.123 21.816 162.123 18.984C162.123 16.152 160.763 15.368 158.843 15.368H158.459V22.696ZM170.947 25.224C169.395 25.224 167.731 24.648 166.499 23.512L168.131 21.544C168.963 22.264 170.067 22.76 171.011 22.76C172.067 22.76 172.563 22.36 172.563 21.72C172.563 21.032 171.907 20.808 170.883 20.376L169.363 19.736C168.115 19.24 166.947 18.2 166.947 16.472C166.947 14.472 168.739 12.872 171.267 12.872C172.643 12.872 174.099 13.4 175.139 14.44L173.715 16.232C172.931 15.64 172.195 15.32 171.267 15.32C170.387 15.32 169.859 15.672 169.859 16.296C169.859 16.968 170.595 17.224 171.651 17.64L173.139 18.232C174.611 18.824 175.491 19.816 175.491 21.496C175.491 23.48 173.827 25.224 170.947 25.224ZM182.51 25.224C179.486 25.224 176.926 23.144 176.926 19.112C176.926 15.144 179.582 12.872 182.606 12.872C184.158 12.872 185.406 13.592 186.222 14.424L184.734 16.248C184.126 15.704 183.502 15.32 182.654 15.32C181.118 15.32 179.854 16.696 179.854 19.016C179.854 21.384 180.942 22.76 182.622 22.76C183.582 22.76 184.334 22.28 184.894 21.672L186.398 23.464C185.39 24.632 184.062 25.224 182.51 25.224ZM188.142 25V13.08H192.51C195.054 13.08 197.166 13.96 197.166 16.84C197.166 19.64 195.054 20.808 192.51 20.808H191.006V25H188.142ZM191.006 18.552H192.286C193.646 18.552 194.382 17.96 194.382 16.84C194.382 15.72 193.646 15.352 192.286 15.352H191.006V18.552ZM194.574 25L191.998 20.072L193.934 18.2L197.774 25H194.574ZM199.47 25V13.08H202.334V25H199.47ZM205.064 25V13.08H209.256C211.864 13.08 214.024 14.024 214.024 16.968C214.024 19.8 211.848 21.048 209.32 21.048H207.928V25H205.064ZM207.928 18.792H209.176C210.568 18.792 211.24 18.136 211.24 16.968C211.24 15.768 210.472 15.352 209.096 15.352H207.928V18.792ZM217.993 25V15.464H214.777V13.08H224.089V15.464H220.857V25H217.993Z" fill="white"/>
<line x1="100" y1="8" x2="100" y2="44" stroke="url(#paint0_linear_2_10)" stroke-width="2"/>
<path d="M58.352 24.208L55.824 18.336L53.264 24.208L48 12H48.56L53.28 22.912L55.552 17.696L53.088 12H53.632L55.872 17.168L58.128 12H58.624L56.128 17.76L58.384 22.96L63.12 12H63.68L58.352 24.208ZM74.0741 24H73.5141L71.2421 19.424H64.8741L62.6501 24H62.0901L68.0741 11.712L74.0741 24ZM71.0501 18.96L68.0421 12.864L65.0981 18.96H71.0501ZM83.0854 12L77.5974 24.272L72.1094 12H72.6854L77.6454 23.056L82.5414 12H83.0854ZM84.3421 12H88.6461V12.464H84.8701V18.992H88.0221V19.456H84.8701V23.536H88.6461V24H84.3421V12ZM53.172 38.24C52.332 38.24 51.56 38.036 50.856 37.628C50.152 37.212 49.592 36.644 49.176 35.924C48.768 35.196 48.564 34.38 48.564 33.476C48.564 32.604 48.776 31.808 49.2 31.088C49.632 30.368 50.204 29.8 50.916 29.384C51.636 28.968 52.4 28.76 53.208 28.76C53.768 28.76 54.212 28.812 54.54 28.916C54.868 29.012 55.248 29.184 55.68 29.432V29.876C55.272 29.596 54.892 29.4 54.54 29.288C54.196 29.168 53.764 29.108 53.244 29.108C52.452 29.108 51.728 29.312 51.072 29.72C50.424 30.12 49.908 30.66 49.524 31.34C49.148 32.012 48.96 32.736 48.96 33.512C48.96 34.296 49.152 35.024 49.536 35.696C49.92 36.368 50.428 36.904 51.06 37.304C51.7 37.696 52.388 37.892 53.124 37.892C53.652 37.892 54.112 37.832 54.504 37.712C54.896 37.584 55.288 37.388 55.68 37.124V37.568C55.296 37.8 54.9 37.968 54.492 38.072C54.092 38.184 53.652 38.24 53.172 38.24ZM57.3855 29H57.9015C58.8375 29 59.5575 29.248 60.0615 29.744C60.5735 30.24 60.8295 30.948 60.8295 31.868C60.8295 32.396 60.7015 32.88 60.4455 33.32C60.1975 33.76 59.8575 34.108 59.4255 34.364C58.9935 34.612 58.5175 34.736 57.9975 34.736H57.9135L61.0095 38H60.4935L57.7695 35.144V38H57.3855V29ZM57.9855 34.388C58.4415 34.388 58.8575 34.276 59.2335 34.052C59.6095 33.828 59.9055 33.528 60.1215 33.152C60.3375 32.768 60.4455 32.344 60.4455 31.88C60.4455 31.072 60.2255 30.448 59.7855 30.008C59.3535 29.568 58.7335 29.348 57.9255 29.348H57.7695V34.388H57.9855ZM70.7665 38H70.3465L68.6425 34.568H63.8665L62.1985 38H61.7785L66.2665 28.784L70.7665 38ZM68.4985 34.22L66.2425 29.648L64.0345 34.22H68.4985ZM72.1043 29H75.3083V29.348H72.5003V34.22H74.8403V34.568H72.5003V38H72.1043V29ZM77.9491 29.348H75.8731V29H80.3971V29.348H78.3451V38H77.9491V29.348Z" fill="white"/>
<path d="M4.00018 26.2997C15.0002 6.29967 21.0002 51.2997 25.4985 23.2987C29.9969 -4.70226 34.0002 73.2997 37.8767 10.101" stroke="url(#paint1_linear_2_10)" stroke-width="8"/>
<defs>
<linearGradient id="paint0_linear_2_10" x1="99" y1="15.5" x2="99" y2="44" gradientUnits="userSpaceOnUse">
<stop stop-color="#00C2FF"/>
<stop offset="1" stop-color="#045CAE"/>
</linearGradient>
<linearGradient id="paint1_linear_2_10" x1="15" y1="16" x2="31" y2="32" gradientUnits="userSpaceOnUse">
<stop stop-color="#034E93"/>
<stop offset="0.473958" stop-color="#045CAE"/>
<stop offset="0.848958" stop-color="#00C2FF"/>
<stop offset="1" stop-color="#88E2FF"/>
</linearGradient>
</defs>
</svg>
