<svg width="192" height="48" viewBox="0 0 192 48" fill="none" xmlns="http://www.w3.org/2000/svg">
<path d="M113.416 25.224C110.392 25.224 107.832 23.144 107.832 19.112C107.832 15.144 110.488 12.872 113.512 12.872C115.064 12.872 116.312 13.592 117.128 14.424L115.64 16.248C115.032 15.704 114.408 15.32 113.56 15.32C112.024 15.32 110.76 16.696 110.76 19.016C110.76 21.384 111.848 22.76 113.528 22.76C114.488 22.76 115.24 22.28 115.8 21.672L117.304 23.464C116.296 24.632 114.968 25.224 113.416 25.224ZM119.048 25V13.08H123.416C125.96 13.08 128.072 13.96 128.072 16.84C128.072 19.64 125.96 20.808 123.416 20.808H121.912V25H119.048ZM121.912 18.552H123.192C124.552 18.552 125.288 17.96 125.288 16.84C125.288 15.72 124.552 15.352 123.192 15.352H121.912V18.552ZM125.48 25L122.904 20.072L124.84 18.2L128.68 25H125.48ZM130.376 25V13.08H137.928V15.464H133.24V17.672H137.224V20.072H133.24V22.6H138.104V25H130.376ZM138.95 25L142.646 13.08H146.07L149.766 25H146.758L145.27 19.048C144.95 17.864 144.646 16.44 144.326 15.224H144.262C143.974 16.472 143.654 17.864 143.35 19.048L141.862 25H138.95ZM141.462 22.264V20.056H147.222V22.264H141.462ZM151.852 25V15.464H148.636V13.08H157.948V15.464H154.716V25H151.852ZM164.054 25.224C160.806 25.224 158.598 22.888 158.598 18.984C158.598 15.08 160.806 12.872 164.054 12.872C167.302 12.872 169.51 15.096 169.51 18.984C169.51 22.888 167.302 25.224 164.054 25.224ZM164.054 22.76C165.622 22.76 166.598 21.288 166.598 18.984C166.598 16.68 165.622 15.32 164.054 15.32C162.486 15.32 161.526 16.68 161.526 18.984C161.526 21.288 162.486 22.76 164.054 22.76ZM171.72 25V13.08H176.088C178.632 13.08 180.744 13.96 180.744 16.84C180.744 19.64 178.632 20.808 176.088 20.808H174.584V25H171.72ZM174.584 18.552H175.864C177.224 18.552 177.96 17.96 177.96 16.84C177.96 15.72 177.224 15.352 175.864 15.352H174.584V18.552ZM178.152 25L175.576 20.072L177.512 18.2L181.352 25H178.152ZM186.385 25.224C184.833 25.224 183.169 24.648 181.937 23.512L183.569 21.544C184.401 22.264 185.505 22.76 186.449 22.76C187.505 22.76 188.001 22.36 188.001 21.72C188.001 21.032 187.345 20.808 186.321 20.376L184.801 19.736C183.553 19.24 182.385 18.2 182.385 16.472C182.385 14.472 184.177 12.872 186.705 12.872C188.081 12.872 189.536 13.4 190.577 14.44L189.153 16.232C188.369 15.64 187.633 15.32 186.705 15.32C185.825 15.32 185.297 15.672 185.297 16.296C185.297 16.968 186.033 17.224 187.089 17.64L188.577 18.232C190.049 18.824 190.929 19.816 190.929 21.496C190.929 23.48 189.265 25.224 186.385 25.224ZM112.898 33.4546C112.849 32.9688 112.635 32.5824 112.254 32.2955C111.874 32.0085 111.395 31.8651 110.818 31.8651C110.412 31.8651 110.054 31.9347 109.744 32.0739C109.438 32.2131 109.196 32.4063 109.02 32.6534C108.847 32.8977 108.76 33.1762 108.76 33.4887C108.76 33.7188 108.81 33.9205 108.909 34.0938C109.009 34.2671 109.142 34.4162 109.31 34.5412C109.48 34.6634 109.668 34.7685 109.872 34.8565C110.08 34.9446 110.288 35.0185 110.499 35.0781L111.419 35.3423C111.697 35.419 111.976 35.5171 112.254 35.6364C112.533 35.7557 112.787 35.9063 113.017 36.0881C113.25 36.2671 113.436 36.4872 113.575 36.7486C113.717 37.0071 113.788 37.3182 113.788 37.6818C113.788 38.1477 113.668 38.5668 113.426 38.9389C113.185 39.3111 112.838 39.6065 112.386 39.8253C111.935 40.0412 111.393 40.1492 110.763 40.1492C110.169 40.1492 109.653 40.0512 109.216 39.8551C108.778 39.6563 108.435 39.3821 108.185 39.0327C107.935 38.6833 107.794 38.2784 107.763 37.8182H108.581C108.609 38.1619 108.723 38.4531 108.922 38.6918C109.121 38.9304 109.379 39.1122 109.697 39.2372C110.016 39.3594 110.371 39.4205 110.763 39.4205C111.197 39.4205 111.584 39.348 111.922 39.2031C112.263 39.0554 112.53 38.8509 112.723 38.5895C112.919 38.3253 113.017 38.0185 113.017 37.669C113.017 37.3736 112.94 37.1264 112.787 36.9276C112.634 36.7259 112.419 36.5568 112.143 36.4205C111.871 36.2841 111.554 36.1634 111.193 36.0583L110.149 35.7514C109.464 35.5469 108.933 35.2642 108.555 34.9034C108.178 34.5426 107.989 34.0824 107.989 33.5227C107.989 33.054 108.114 32.6421 108.364 32.2869C108.616 31.929 108.957 31.6506 109.386 31.4517C109.818 31.25 110.303 31.1492 110.839 31.1492C111.382 31.1492 111.862 31.2486 112.28 31.4475C112.697 31.6463 113.028 31.9205 113.273 32.2699C113.52 32.6165 113.652 33.0114 113.669 33.4546H112.898ZM115.178 31.9887V31.2727H121.506V31.9887H118.74V40H117.943V31.9887H115.178ZM129.116 31.2727H129.913V37.0512C129.913 37.6449 129.774 38.1762 129.496 38.6449C129.217 39.1108 128.83 39.4787 128.332 39.7486C127.838 40.0156 127.263 40.1492 126.607 40.1492C125.953 40.1492 125.378 40.0142 124.881 39.7443C124.384 39.4744 123.996 39.1065 123.717 38.6406C123.439 38.1747 123.3 37.6449 123.3 37.0512V31.2727H124.097V36.9958C124.097 37.4588 124.2 37.8722 124.408 38.2358C124.615 38.5966 124.906 38.8807 125.281 39.0881C125.659 39.2955 126.101 39.3992 126.607 39.3992C127.112 39.3992 127.554 39.2955 127.932 39.0881C128.31 38.8807 128.601 38.5966 128.805 38.2358C129.013 37.8722 129.116 37.4588 129.116 36.9958V31.2727ZM134.786 40H132.229V31.2727H134.94C135.772 31.2727 136.484 31.446 137.075 31.7926C137.668 32.1392 138.123 32.6364 138.438 33.2841C138.754 33.9318 138.911 34.7088 138.911 35.6151C138.911 36.5298 138.749 37.3154 138.425 37.9716C138.104 38.625 137.636 39.1264 137.019 39.4759C136.406 39.8253 135.661 40 134.786 40ZM133.026 39.2841H134.739C135.489 39.2841 136.117 39.1364 136.623 38.8409C137.129 38.5455 137.508 38.1236 137.761 37.5753C138.013 37.027 138.14 36.3736 138.14 35.6151C138.137 34.8622 138.012 34.2145 137.765 33.6719C137.521 33.1293 137.157 32.7131 136.674 32.4233C136.194 32.1335 135.6 31.9887 134.893 31.9887H133.026V39.2841ZM141.64 31.2727V40H140.843V31.2727H141.64ZM151.115 35.6364C151.115 36.5455 150.953 37.3367 150.629 38.01C150.305 38.6804 149.859 39.2003 149.291 39.5696C148.725 39.9361 148.075 40.1193 147.339 40.1193C146.603 40.1193 145.951 39.9361 145.383 39.5696C144.818 39.2003 144.373 38.6804 144.049 38.01C143.728 37.3367 143.568 36.5455 143.568 35.6364C143.568 34.7273 143.728 33.9375 144.049 33.2671C144.373 32.5938 144.819 32.0739 145.387 31.7074C145.956 31.3381 146.606 31.1534 147.339 31.1534C148.075 31.1534 148.725 31.3381 149.291 31.7074C149.859 32.0739 150.305 32.5938 150.629 33.2671C150.953 33.9375 151.115 34.7273 151.115 35.6364ZM150.339 35.6364C150.339 34.8551 150.208 34.1861 149.947 33.6293C149.686 33.0696 149.329 32.6421 148.877 32.3466C148.426 32.0512 147.913 31.9034 147.339 31.9034C146.768 31.9034 146.257 32.0512 145.805 32.3466C145.353 32.6421 144.995 33.0682 144.731 33.625C144.47 34.1818 144.339 34.8523 144.339 35.6364C144.339 36.4176 144.47 37.0867 144.731 37.6435C144.993 38.2003 145.349 38.6279 145.801 38.9262C146.252 39.2216 146.765 39.3693 147.339 39.3693C147.913 39.3693 148.426 39.2216 148.877 38.9262C149.332 38.6307 149.69 38.2046 149.951 37.6477C150.213 37.0881 150.342 36.4176 150.339 35.6364Z" fill="white"/>
<line x1="100" y1="8.00002" x2="100" y2="44" stroke="url(#paint0_linear_2_9)" stroke-width="2"/>
<path d="M60.456 23.312C60.456 23.856 60.304 24.32 60 24.704C59.712 25.088 59.208 25.28 58.488 25.28C57.992 25.28 57.488 25.192 56.976 25.016C56.48 24.84 55.992 24.608 55.512 24.32C55.032 24.032 54.568 23.696 54.12 23.312C53.688 22.928 53.296 22.528 52.944 22.112C52.912 22.256 52.864 22.464 52.8 22.736C52.736 23.008 52.656 23.28 52.56 23.552C52.464 23.824 52.352 24.064 52.224 24.272C52.112 24.464 51.992 24.56 51.864 24.56C51.656 24.56 51.424 24.456 51.168 24.248C50.928 24.04 50.68 23.768 50.424 23.432C50.184 23.08 49.944 22.68 49.704 22.232C49.48 21.784 49.28 21.32 49.104 20.84C48.64 19.512 48.344 18.472 48.216 17.72C48.088 16.952 48.024 16.536 48.024 16.472C48.024 16.376 48.04 16.288 48.072 16.208C48.104 16.128 48.176 16.088 48.288 16.088C48.464 16.088 48.592 16.144 48.672 16.256C48.768 16.352 48.832 16.48 48.864 16.64C48.944 16.976 49.048 17.368 49.176 17.816C49.32 18.248 49.472 18.696 49.632 19.16C49.808 19.624 49.984 20.08 50.16 20.528C50.352 20.96 50.536 21.352 50.712 21.704C50.888 22.056 51.056 22.344 51.216 22.568C51.376 22.776 51.512 22.88 51.624 22.88C51.736 22.88 51.816 22.792 51.864 22.616C51.928 22.424 51.976 22.208 52.008 21.968C52.04 21.728 52.056 21.496 52.056 21.272C52.072 21.048 52.08 20.896 52.08 20.816C52 20.672 51.936 20.504 51.888 20.312C51.856 20.12 51.84 19.96 51.84 19.832C51.84 19.624 51.888 19.448 51.984 19.304C52.096 19.16 52.2 19.088 52.296 19.088C52.36 19.088 52.4 19.096 52.416 19.112C52.448 19.128 52.488 19.144 52.536 19.16C52.584 19.16 52.624 19.16 52.656 19.16C52.688 19.144 52.728 19.136 52.776 19.136C52.808 19.136 52.84 19.152 52.872 19.184C52.92 19.2 52.968 19.264 53.016 19.376C53.224 19.92 53.52 20.48 53.904 21.056C54.288 21.632 54.72 22.152 55.2 22.616C55.68 23.08 56.2 23.464 56.76 23.768C57.32 24.072 57.888 24.224 58.464 24.224C58.672 24.224 58.864 24.16 59.04 24.032C59.216 23.888 59.304 23.704 59.304 23.48C59.304 22.808 59.232 22.12 59.088 21.416C58.96 20.712 58.776 19.992 58.536 19.256C58.312 18.52 58.048 17.776 57.744 17.024C57.44 16.256 57.128 15.472 56.808 14.672C56.536 14 56.272 13.472 56.016 13.088C55.776 12.688 55.56 12.376 55.368 12.152C55.192 11.912 55.048 11.72 54.936 11.576C54.824 11.416 54.768 11.224 54.768 11C54.768 10.728 54.864 10.528 55.056 10.4C55.264 10.272 55.48 10.208 55.704 10.208C55.832 10.208 55.976 10.336 56.136 10.592C56.296 10.832 56.464 11.152 56.64 11.552C56.816 11.936 56.992 12.368 57.168 12.848C57.344 13.328 57.52 13.808 57.696 14.288C57.952 14.992 58.24 15.752 58.56 16.568C58.88 17.368 59.176 18.176 59.448 18.992C59.736 19.792 59.976 20.568 60.168 21.32C60.36 22.072 60.456 22.736 60.456 23.312ZM69.9023 27.056C69.9183 27.12 69.9263 27.176 69.9263 27.224C69.9263 27.288 69.9263 27.336 69.9263 27.368C69.9263 27.528 69.8863 27.64 69.8063 27.704C69.7423 27.768 69.6063 27.8 69.3983 27.8C69.2063 27.8 69.0783 27.768 69.0143 27.704C68.9183 27.608 68.7903 27.36 68.6303 26.96C68.4703 26.56 68.3023 26.088 68.1263 25.544C67.9503 25 67.7743 24.416 67.5983 23.792C67.4383 23.168 67.2943 22.576 67.1663 22.016C66.9903 22.096 66.7503 22.184 66.4463 22.28C66.1423 22.36 65.8303 22.44 65.5103 22.52C65.1423 22.6 64.7583 22.688 64.3583 22.784C64.2143 23.472 64.1023 24.064 64.0223 24.56C63.9583 25.04 63.8943 25.44 63.8303 25.76C63.7823 26.064 63.7103 26.288 63.6143 26.432C63.5343 26.592 63.3983 26.672 63.2063 26.672C63.0783 26.672 62.9663 26.6 62.8703 26.456C62.7743 26.312 62.7263 26.096 62.7263 25.808C62.7263 25.664 62.7663 25.328 62.8463 24.8C62.9263 24.272 63.0143 23.688 63.1103 23.048C63.2063 22.392 63.3023 21.744 63.3983 21.104C63.4943 20.464 63.5583 19.96 63.5903 19.592C63.6063 19.4 63.6543 19.088 63.7343 18.656C63.8303 18.224 63.9263 17.784 64.0223 17.336C64.1183 16.872 64.2143 16.456 64.3103 16.088C64.4063 15.72 64.4703 15.512 64.5023 15.464C64.7583 14.872 64.9183 14.264 64.9823 13.64C65.0623 13.016 65.1183 12.448 65.1503 11.936C65.1983 11.408 65.2703 10.984 65.3663 10.664C65.4623 10.328 65.6623 10.16 65.9663 10.16C66.0463 10.16 66.1263 10.224 66.2063 10.352C66.3023 10.48 66.3903 10.632 66.4703 10.808C66.5503 10.984 66.6143 11.16 66.6623 11.336C66.7103 11.496 66.7423 11.624 66.7583 11.72C66.7743 11.816 66.7903 12.008 66.8063 12.296C66.8383 12.584 66.8623 12.904 66.8783 13.256C66.9103 13.592 66.9343 13.928 66.9503 14.264C66.9823 14.584 67.0063 14.832 67.0223 15.008C67.0703 15.536 67.1423 16.128 67.2383 16.784C67.3503 17.44 67.4622 18.056 67.5742 18.632C67.6862 19.208 67.7903 19.696 67.8863 20.096C67.9823 20.48 68.0543 20.672 68.1023 20.672C68.1663 20.672 68.2463 20.656 68.3423 20.624C68.4543 20.592 68.5583 20.576 68.6543 20.576C68.7823 20.576 68.8463 20.64 68.8463 20.768C68.8463 20.896 68.8143 21 68.7503 21.08C68.6863 21.16 68.6143 21.232 68.5343 21.296C68.4703 21.36 68.4063 21.416 68.3423 21.464C68.2943 21.512 68.2703 21.568 68.2703 21.632C68.2703 21.76 68.3423 22.088 68.4863 22.616L68.8703 24.032C68.9023 24.16 68.9743 24.376 69.0863 24.68C69.1983 24.984 69.3103 25.304 69.4223 25.64C69.5503 25.96 69.6623 26.256 69.7583 26.528C69.8543 26.816 69.9023 26.992 69.9023 27.056ZM64.5742 21.56C64.6703 21.56 64.8463 21.536 65.1023 21.488C65.3583 21.424 65.6223 21.352 65.8943 21.272C66.1663 21.192 66.4063 21.112 66.6143 21.032C66.8223 20.952 66.9263 20.888 66.9263 20.84C66.9263 20.792 66.8943 20.672 66.8303 20.48C66.7823 20.272 66.7183 20.016 66.6383 19.712C66.5743 19.392 66.5023 19.032 66.4223 18.632C66.3423 18.232 66.2703 17.808 66.2063 17.36C66.1743 17.072 66.1343 16.68 66.0863 16.184C66.0383 15.688 65.9903 15.2 65.9423 14.72C65.8943 14.224 65.8543 13.8 65.8223 13.448C65.7903 13.096 65.7743 12.92 65.7743 12.92C65.7743 12.92 65.7503 13.04 65.7023 13.28C65.6543 13.504 65.5983 13.76 65.5343 14.048C65.4863 14.32 65.4383 14.584 65.3903 14.84C65.3583 15.08 65.3423 15.216 65.3423 15.248V15.92C65.3423 15.952 65.3183 16.096 65.2703 16.352C65.2383 16.592 65.1903 16.904 65.1263 17.288C65.0623 17.656 64.9903 18.064 64.9103 18.512C64.8463 18.944 64.7823 19.36 64.7183 19.76C64.6543 20.16 64.5983 20.52 64.5503 20.84C64.5183 21.144 64.5023 21.352 64.5023 21.464C64.5023 21.528 64.5263 21.56 64.5742 21.56ZM78.2363 23.144C78.2363 23.352 78.2043 23.64 78.1403 24.008C78.0763 24.36 77.9963 24.712 77.9003 25.064C77.8043 25.416 77.6923 25.72 77.5643 25.976C77.4363 26.232 77.3163 26.36 77.2043 26.36C77.0283 26.36 76.7723 26.208 76.4363 25.904C76.1003 25.584 75.7403 25.208 75.3563 24.776C74.9723 24.344 74.5963 23.896 74.2283 23.432C73.8763 22.968 73.5963 22.576 73.3883 22.256C73.1163 21.84 72.8683 21.416 72.6443 20.984C72.4363 20.552 72.2523 20.136 72.0923 19.736C71.9483 19.336 71.8363 18.968 71.7563 18.632C71.6763 18.28 71.6363 17.984 71.6363 17.744C71.6363 17.536 71.6923 17.36 71.8043 17.216C71.9323 17.072 72.0443 17 72.1403 17C72.2843 17 72.3883 17.056 72.4523 17.168C72.5163 17.264 72.5723 17.408 72.6203 17.6C72.6683 17.776 72.7243 17.992 72.7883 18.248C72.8523 18.504 72.9563 18.792 73.1003 19.112C73.2603 19.496 73.4843 19.944 73.7723 20.456C74.0763 20.952 74.4043 21.456 74.7563 21.968C75.1083 22.48 75.4603 22.96 75.8123 23.408C76.1803 23.856 76.5163 24.2 76.8203 24.44C76.9163 24.168 76.9883 23.808 77.0363 23.36C77.0843 22.912 77.1083 22.464 77.1083 22.016C77.1083 21.6 77.0843 21.12 77.0363 20.576C76.9883 20.016 76.9163 19.448 76.8203 18.872C76.7403 18.28 76.6443 17.704 76.5323 17.144C76.4203 16.568 76.3083 16.048 76.1963 15.584L75.4523 12.824C75.4523 12.664 75.5323 12.536 75.6923 12.44C75.8523 12.328 76.0043 12.272 76.1483 12.272C76.3563 12.272 76.5003 12.32 76.5803 12.416C76.6603 12.496 76.7083 12.624 76.7243 12.8C76.7563 12.976 76.7723 13.2 76.7723 13.472C76.7883 13.728 76.8363 14.024 76.9163 14.36C77.0763 15.112 77.2283 15.92 77.3723 16.784C77.5323 17.632 77.6763 18.464 77.8043 19.28C77.9323 20.08 78.0363 20.824 78.1163 21.512C78.1963 22.2 78.2363 22.744 78.2363 23.144ZM87.1159 17.528C87.1319 17.56 87.1479 17.584 87.1639 17.6C87.1799 17.6 87.1879 17.616 87.1879 17.648C87.1879 17.744 86.9879 17.928 86.5879 18.2C86.1879 18.456 85.6919 18.752 85.0999 19.088C84.5079 19.408 83.8839 19.736 83.2279 20.072C82.5719 20.392 81.9879 20.656 81.4759 20.864C81.4759 20.896 81.4599 21 81.4279 21.176C81.3959 21.352 81.3799 21.464 81.3799 21.512V21.968C81.3799 22.336 81.4359 22.704 81.5479 23.072C81.6599 23.424 81.8279 23.744 82.0519 24.032C82.2919 24.32 82.5799 24.552 82.9159 24.728C83.2519 24.904 83.6439 24.992 84.0919 24.992C84.2839 24.992 84.5159 24.96 84.7879 24.896C85.0759 24.816 85.3479 24.712 85.6039 24.584C85.8759 24.44 86.1159 24.272 86.3239 24.08C86.5319 23.888 86.6599 23.672 86.7079 23.432C86.8999 23.448 87.0119 23.504 87.0439 23.6C87.0919 23.696 87.1159 23.76 87.1159 23.792C87.1159 24.208 87.0119 24.568 86.8039 24.872C86.6119 25.16 86.3639 25.4 86.0599 25.592C85.7719 25.768 85.4599 25.904 85.1239 26C84.8039 26.08 84.5159 26.12 84.2599 26.12C82.8839 26.12 81.8839 25.736 81.2599 24.968C80.6359 24.2 80.3239 23.192 80.3239 21.944C80.3239 21.88 80.3399 21.736 80.3719 21.512C80.4039 21.288 80.4199 21.136 80.4199 21.056C80.4199 21.04 80.3879 21.024 80.3239 21.008C80.2599 20.976 80.1879 20.944 80.1079 20.912C80.0439 20.88 79.9799 20.832 79.9159 20.768C79.8679 20.688 79.8439 20.584 79.8439 20.456C79.8439 20.328 79.8919 20.224 79.9879 20.144C80.0839 20.064 80.1959 19.992 80.3239 19.928L80.5639 19.784C80.7079 19.176 80.8759 18.592 81.0679 18.032C81.2759 17.456 81.5319 16.88 81.8359 16.304C81.7079 16.304 81.5719 16.288 81.4279 16.256C81.2839 16.224 81.2119 16.112 81.2119 15.92C81.2119 15.696 81.3399 15.448 81.5959 15.176C81.8679 14.904 82.1719 14.648 82.5079 14.408C82.8599 14.168 83.2039 13.968 83.5399 13.808C83.8759 13.632 84.1159 13.544 84.2599 13.544C84.3239 13.544 84.3639 13.56 84.3799 13.592C84.4119 13.608 84.4599 13.616 84.5239 13.616C84.6519 13.616 84.8119 13.592 85.0039 13.544C85.2119 13.496 85.4279 13.44 85.6519 13.376C85.8759 13.312 86.0839 13.256 86.2759 13.208C86.4839 13.16 86.6519 13.136 86.7799 13.136C86.9239 13.136 87.0279 13.184 87.0919 13.28C87.1719 13.376 87.2119 13.48 87.2119 13.592C87.2119 13.72 87.1319 13.816 86.9719 13.88C86.8119 13.928 86.6679 13.968 86.5399 14C86.0919 14.08 85.6199 14.224 85.1239 14.432C84.6439 14.624 84.1959 14.84 83.7799 15.08C83.6199 15.256 83.4279 15.512 83.2039 15.848C82.9799 16.168 82.7639 16.536 82.5559 16.952C82.3479 17.368 82.1559 17.8 81.9799 18.248C81.8199 18.696 81.7159 19.12 81.6679 19.52L82.0759 19.328C83.3079 18.736 84.3079 18.272 85.0759 17.936C85.8599 17.6 86.4679 17.432 86.8999 17.432C86.9799 17.432 87.0519 17.464 87.1159 17.528ZM55.632 38.336C55.632 38.4853 55.5893 38.64 55.504 38.8C55.4293 38.96 55.3333 39.12 55.216 39.28C55.0987 39.44 54.9707 39.5947 54.832 39.744C54.6933 39.8827 54.5653 40.0053 54.448 40.112C54.16 40.368 53.8613 40.6133 53.552 40.848C53.2533 41.072 52.9387 41.2747 52.608 41.456C52.288 41.6373 51.952 41.7813 51.6 41.888C51.248 41.9947 50.88 42.048 50.496 42.048C49.3333 42.048 48.752 41.4507 48.752 40.256C48.752 40.1387 48.8 39.9093 48.896 39.568C48.992 39.2267 49.1147 38.8373 49.264 38.4C49.4133 37.9627 49.5893 37.504 49.792 37.024C49.9947 36.544 50.2027 36.1067 50.416 35.712C50.6293 35.3067 50.8373 34.976 51.04 34.72C51.2533 34.464 51.4507 34.336 51.632 34.336C51.7493 34.336 51.8347 34.3733 51.888 34.448C51.952 34.5227 51.984 34.6027 51.984 34.688C51.9733 34.752 51.8987 34.8907 51.76 35.104C51.6213 35.3067 51.4773 35.5147 51.328 35.728C51.3067 35.76 51.2693 35.8133 51.216 35.888C51.1627 35.9627 51.1093 36.0373 51.056 36.112C50.992 36.1973 50.928 36.288 50.864 36.384C50.8213 36.4587 50.7253 36.6507 50.576 36.96C50.4373 37.2587 50.288 37.6107 50.128 38.016C49.968 38.4107 49.824 38.8267 49.696 39.264C49.568 39.6907 49.504 40.064 49.504 40.384C49.504 40.5653 49.5413 40.7093 49.616 40.816C49.7013 40.9227 49.7973 41.0027 49.904 41.056C50.0213 41.1093 50.1387 41.1467 50.256 41.168C50.384 41.1787 50.496 41.184 50.592 41.184C50.9867 41.184 51.4027 41.0987 51.84 40.928C52.288 40.7467 52.7147 40.512 53.12 40.224C53.5253 39.936 53.8987 39.6053 54.24 39.232C54.5813 38.848 54.848 38.4533 55.04 38.048C55.0827 37.9733 55.1253 37.9253 55.168 37.904C55.2213 37.8827 55.2693 37.872 55.312 37.872C55.3973 37.872 55.472 37.9307 55.536 38.048C55.6 38.1653 55.632 38.2613 55.632 38.336ZM65.8314 42.736C65.8314 42.8107 65.8047 42.8907 65.7514 42.976C65.698 43.0613 65.6234 43.104 65.5274 43.104C65.474 43.104 65.4154 43.088 65.3514 43.056C64.9674 42.8747 64.5194 42.7253 64.0074 42.608C63.4954 42.5013 62.9674 42.4053 62.4234 42.32C61.89 42.2347 61.3674 42.1387 60.8554 42.032C60.3434 41.936 59.8954 41.808 59.5114 41.648C59.5754 41.7867 59.6394 41.8987 59.7034 41.984C59.7674 42.0693 59.8207 42.144 59.8634 42.208C59.9167 42.272 59.9594 42.3307 59.9914 42.384C60.0234 42.448 60.0394 42.528 60.0394 42.624C60.0394 42.7093 60.0074 42.7733 59.9434 42.816C59.8794 42.8587 59.8154 42.88 59.7514 42.88C59.6234 42.88 59.4847 42.8 59.3354 42.64C59.1967 42.48 59.0527 42.2773 58.9034 42.032C58.754 41.7867 58.6047 41.5147 58.4554 41.216C58.3167 40.9067 58.1887 40.608 58.0714 40.32C57.954 40.032 57.8527 39.7707 57.7674 39.536C57.682 39.2907 57.6234 39.104 57.5914 38.976L56.8874 36.16C56.8874 36.128 56.8927 36.0853 56.9034 36.032C56.9247 35.9787 56.9674 35.9253 57.0314 35.872C56.9887 35.7867 56.9674 35.696 56.9674 35.6C56.9674 35.3013 57.138 35.0293 57.4794 34.784C57.8207 34.528 58.2314 34.3147 58.7114 34.144C59.202 33.9627 59.714 33.824 60.2474 33.728C60.7807 33.632 61.234 33.584 61.6074 33.584C61.714 33.584 61.874 33.5947 62.0874 33.616C62.3007 33.6267 62.5087 33.664 62.7114 33.728C62.9247 33.792 63.106 33.8933 63.2554 34.032C63.4154 34.16 63.4954 34.3413 63.4954 34.576C63.4954 34.8 63.378 35.056 63.1434 35.344C62.9194 35.632 62.6367 35.936 62.2954 36.256C61.954 36.576 61.586 36.9067 61.1914 37.248C60.7967 37.5787 60.4287 37.9147 60.0874 38.256C59.746 38.5867 59.458 38.912 59.2234 39.232C58.9994 39.5413 58.8874 39.8293 58.8874 40.096C58.8874 40.2987 58.9727 40.48 59.1434 40.64C59.3247 40.7893 59.5487 40.9227 59.8154 41.04C60.082 41.1573 60.37 41.2587 60.6794 41.344C60.9994 41.4293 61.298 41.4987 61.5754 41.552C61.8634 41.6053 62.1087 41.648 62.3114 41.68C62.5247 41.7013 62.6527 41.712 62.6954 41.712C62.834 41.712 63.074 41.728 63.4154 41.76C63.7567 41.792 64.1034 41.8507 64.4554 41.936C64.818 42.0107 65.138 42.112 65.4154 42.24C65.6927 42.368 65.8314 42.5333 65.8314 42.736ZM62.7434 34.592C62.7434 34.5173 62.706 34.4533 62.6314 34.4C62.5567 34.336 62.4554 34.288 62.3274 34.256C62.21 34.2133 62.0767 34.1867 61.9274 34.176C61.7887 34.1547 61.65 34.144 61.5114 34.144C61.298 34.144 61.042 34.176 60.7434 34.24C60.4447 34.304 60.1407 34.384 59.8314 34.48C59.5327 34.576 59.2554 34.672 58.9994 34.768C58.7434 34.864 58.5567 34.944 58.4394 35.008C58.2154 35.136 57.9967 35.28 57.7834 35.44C57.57 35.5893 57.4634 35.7387 57.4634 35.888C57.4634 35.9093 57.4794 35.9307 57.5114 35.952C57.5434 35.9733 57.5594 36.0107 57.5594 36.064C57.5594 36.128 57.5914 36.2933 57.6554 36.56C57.7194 36.816 57.794 37.1093 57.8794 37.44C57.9647 37.76 58.0554 38.08 58.1514 38.4C58.258 38.72 58.354 38.976 58.4394 39.168C58.8767 38.5493 59.346 38.0107 59.8474 37.552C60.3594 37.0827 60.8287 36.672 61.2554 36.32C61.682 35.9573 62.034 35.6427 62.3114 35.376C62.5994 35.0987 62.7434 34.8373 62.7434 34.592ZM70.2109 42.704C70.2215 42.7467 70.2269 42.784 70.2269 42.816C70.2269 42.8587 70.2269 42.8907 70.2269 42.912C70.2269 43.0187 70.2002 43.0933 70.1469 43.136C70.1042 43.1787 70.0135 43.2 69.8749 43.2C69.7469 43.2 69.6615 43.1787 69.6189 43.136C69.5549 43.072 69.4695 42.9067 69.3629 42.64C69.2562 42.3733 69.1442 42.0587 69.0269 41.696C68.9095 41.3333 68.7922 40.944 68.6749 40.528C68.5682 40.112 68.4722 39.7173 68.3869 39.344C68.2695 39.3973 68.1095 39.456 67.9069 39.52C67.7042 39.5733 67.4962 39.6267 67.2829 39.68C67.0375 39.7333 66.7815 39.792 66.5149 39.856C66.4189 40.3147 66.3442 40.7093 66.2909 41.04C66.2482 41.36 66.2055 41.6267 66.1629 41.84C66.1309 42.0427 66.0829 42.192 66.0189 42.288C65.9655 42.3947 65.8749 42.448 65.7469 42.448C65.6615 42.448 65.5869 42.4 65.5229 42.304C65.4589 42.208 65.4269 42.064 65.4269 41.872C65.4269 41.776 65.4535 41.552 65.5069 41.2C65.5602 40.848 65.6189 40.4587 65.6829 40.032C65.7469 39.5947 65.8109 39.1627 65.8749 38.736C65.9389 38.3093 65.9815 37.9733 66.0029 37.728C66.0135 37.6 66.0455 37.392 66.0989 37.104C66.1629 36.816 66.2269 36.5227 66.2909 36.224C66.3549 35.9147 66.4189 35.6373 66.4829 35.392C66.5469 35.1467 66.5895 35.008 66.6109 34.976C66.7815 34.5813 66.8882 34.176 66.9309 33.76C66.9842 33.344 67.0215 32.9653 67.0429 32.624C67.0749 32.272 67.1229 31.9893 67.1869 31.776C67.2509 31.552 67.3842 31.44 67.5869 31.44C67.6402 31.44 67.6935 31.4827 67.7469 31.568C67.8109 31.6533 67.8695 31.7547 67.9229 31.872C67.9762 31.9893 68.0189 32.1067 68.0509 32.224C68.0829 32.3307 68.1042 32.416 68.1149 32.48C68.1255 32.544 68.1362 32.672 68.1469 32.864C68.1682 33.056 68.1842 33.2693 68.1949 33.504C68.2162 33.728 68.2322 33.952 68.2429 34.176C68.2642 34.3893 68.2802 34.5547 68.2909 34.672C68.3229 35.024 68.3709 35.4187 68.4349 35.856C68.5095 36.2933 68.5842 36.704 68.6589 37.088C68.7335 37.472 68.8029 37.7973 68.8669 38.064C68.9309 38.32 68.9789 38.448 69.0109 38.448C69.0535 38.448 69.1069 38.4373 69.1709 38.416C69.2455 38.3947 69.3149 38.384 69.3789 38.384C69.4642 38.384 69.5069 38.4267 69.5069 38.512C69.5069 38.5973 69.4855 38.6667 69.4429 38.72C69.4002 38.7733 69.3522 38.8213 69.2989 38.864C69.2562 38.9067 69.2135 38.944 69.1709 38.976C69.1389 39.008 69.1229 39.0453 69.1229 39.088C69.1229 39.1733 69.1709 39.392 69.2669 39.744L69.5229 40.688C69.5442 40.7733 69.5922 40.9173 69.6669 41.12C69.7415 41.3227 69.8162 41.536 69.8909 41.76C69.9762 41.9733 70.0509 42.1707 70.1149 42.352C70.1789 42.544 70.2109 42.6613 70.2109 42.704ZM66.6589 39.04C66.7229 39.04 66.8402 39.024 67.0109 38.992C67.1815 38.9493 67.3575 38.9013 67.5389 38.848C67.7202 38.7947 67.8802 38.7413 68.0189 38.688C68.1575 38.6347 68.2269 38.592 68.2269 38.56C68.2269 38.528 68.2055 38.448 68.1629 38.32C68.1309 38.1813 68.0882 38.0107 68.0349 37.808C67.9922 37.5947 67.9442 37.3547 67.8909 37.088C67.8375 36.8213 67.7895 36.5387 67.7469 36.24C67.7255 36.048 67.6989 35.7867 67.6669 35.456C67.6349 35.1253 67.6029 34.8 67.5709 34.48C67.5389 34.1493 67.5122 33.8667 67.4909 33.632C67.4695 33.3973 67.4589 33.28 67.4589 33.28C67.4589 33.28 67.4429 33.36 67.4109 33.52C67.3789 33.6693 67.3415 33.84 67.2989 34.032C67.2669 34.2133 67.2349 34.3893 67.2029 34.56C67.1815 34.72 67.1709 34.8107 67.1709 34.832V35.28C67.1709 35.3013 67.1549 35.3973 67.1229 35.568C67.1015 35.728 67.0695 35.936 67.0269 36.192C66.9842 36.4373 66.9362 36.7093 66.8829 37.008C66.8402 37.296 66.7975 37.5733 66.7549 37.84C66.7122 38.1067 66.6749 38.3467 66.6429 38.56C66.6215 38.7627 66.6109 38.9013 66.6109 38.976C66.6109 39.0187 66.6269 39.04 66.6589 39.04ZM76.7429 33.408C76.7429 33.4507 76.7269 33.4827 76.6949 33.504C76.6629 33.5253 76.6309 33.5467 76.5989 33.568C76.5562 33.5893 76.5082 33.6053 76.4549 33.616C76.3695 33.616 76.2949 33.6107 76.2309 33.6C76.1669 33.5893 76.0922 33.584 76.0069 33.584C75.8895 33.584 75.6549 33.6533 75.3029 33.792C74.9615 33.92 74.6042 34.0853 74.2309 34.288C73.8575 34.4907 73.5215 34.704 73.2229 34.928C72.9349 35.152 72.7855 35.3493 72.7749 35.52L72.9669 36.608C73.0202 36.8853 73.0629 37.136 73.0949 37.36C73.1375 37.584 73.1642 37.696 73.1749 37.696C73.1962 37.6853 73.2655 37.6427 73.3829 37.568C73.5109 37.4827 73.6655 37.392 73.8469 37.296C74.0282 37.1893 74.2255 37.0773 74.4389 36.96C74.6629 36.8427 74.8762 36.736 75.0789 36.64C75.2815 36.544 75.4682 36.464 75.6389 36.4C75.8095 36.336 75.9429 36.304 76.0389 36.304C76.1135 36.304 76.1775 36.32 76.2309 36.352C76.2949 36.384 76.3269 36.4427 76.3269 36.528C76.3269 36.592 76.2522 36.6827 76.1029 36.8C75.9535 36.9173 75.7669 37.0453 75.5429 37.184C75.3189 37.3227 75.0735 37.472 74.8069 37.632C74.5509 37.7813 74.3109 37.9253 74.0869 38.064C73.8629 38.192 73.6762 38.3147 73.5269 38.432C73.3775 38.5387 73.3029 38.6187 73.3029 38.672C73.3029 38.7253 73.3189 38.896 73.3509 39.184C73.3935 39.4613 73.4469 39.7707 73.5109 40.112C73.5855 40.4533 73.6655 40.784 73.7509 41.104C73.8469 41.424 73.9482 41.648 74.0549 41.776C74.0762 41.7973 74.0869 41.8293 74.0869 41.872C74.0869 41.936 74.0442 42.0053 73.9589 42.08C73.8735 42.1653 73.7989 42.208 73.7349 42.208C73.6495 42.208 73.5589 42.128 73.4629 41.968C73.3775 41.808 73.2975 41.6053 73.2229 41.36C73.1482 41.1147 73.0735 40.8533 72.9989 40.576C72.9349 40.2987 72.8762 40.0373 72.8229 39.792C72.7802 39.5467 72.7429 39.344 72.7109 39.184C72.6789 39.024 72.6575 38.944 72.6469 38.944C72.6149 38.944 72.5402 38.9653 72.4229 39.008C72.3055 39.04 72.1829 39.056 72.0549 39.056C71.9589 39.056 71.8735 39.0187 71.7989 38.944C71.7349 38.8587 71.7029 38.7733 71.7029 38.688C71.7029 38.6027 71.7295 38.528 71.7829 38.464C71.8362 38.4 71.9002 38.3413 71.9749 38.288C72.0495 38.2347 72.1295 38.1867 72.2149 38.144C72.3002 38.1013 72.3749 38.0587 72.4389 38.016L71.9909 34.96C71.9909 34.8747 72.0069 34.7893 72.0389 34.704C72.0709 34.608 72.1402 34.56 72.2469 34.56C72.2682 34.56 72.3002 34.5867 72.3429 34.64C72.3855 34.6827 72.4175 34.704 72.4389 34.704C72.4709 34.6827 72.6095 34.576 72.8549 34.384C73.1002 34.1813 73.3989 33.968 73.7509 33.744C74.1135 33.5093 74.4975 33.3013 74.9029 33.12C75.3189 32.928 75.7029 32.832 76.0549 32.832C76.1935 32.832 76.3429 32.8907 76.5029 33.008C76.6629 33.1253 76.7429 33.2587 76.7429 33.408ZM85.8939 33.216C85.8939 33.2907 85.8619 33.3547 85.7979 33.408C85.7445 33.4507 85.6912 33.472 85.6379 33.472C85.5419 33.472 85.3872 33.4827 85.1739 33.504C84.9712 33.5253 84.7472 33.552 84.5019 33.584C84.2672 33.6053 84.0325 33.632 83.7979 33.664C83.5739 33.6853 83.3925 33.7067 83.2539 33.728C83.2112 33.728 83.1205 33.7333 82.9819 33.744C82.8539 33.7547 82.7045 33.7707 82.5339 33.792C82.3739 33.8027 82.2085 33.8187 82.0379 33.84C81.8779 33.8613 81.7499 33.8773 81.6539 33.888C81.5365 33.9093 81.3659 33.9467 81.1419 34C80.9179 34.0533 80.7152 34.1067 80.5339 34.16C80.4699 34.1813 80.4112 34.1973 80.3579 34.208C80.3045 34.2187 80.2619 34.2293 80.2299 34.24C80.1872 34.2507 80.1499 34.2613 80.1179 34.272L80.9819 37.328C81.0139 37.424 81.0672 37.5787 81.1419 37.792C81.2165 38.0053 81.3019 38.24 81.3979 38.496C81.5045 38.752 81.6112 39.0187 81.7179 39.296C81.8352 39.5733 81.9365 39.8293 82.0219 40.064C82.0752 40.2027 82.1339 40.3733 82.1979 40.576C82.2619 40.7787 82.3205 40.9867 82.3739 41.2C82.4272 41.4027 82.4699 41.5893 82.5019 41.76C82.5445 41.9307 82.5659 42.048 82.5659 42.112C82.5659 42.2613 82.5232 42.416 82.4379 42.576C82.3525 42.7467 82.2405 42.832 82.1019 42.832C81.9739 42.832 81.9099 42.7413 81.9099 42.56V42.448C81.9099 42.416 81.9099 42.3787 81.9099 42.336C81.9205 42.2933 81.9259 42.2453 81.9259 42.192C81.9259 42.1067 81.8939 41.9627 81.8299 41.76C81.7659 41.5467 81.6859 41.312 81.5899 41.056C81.4939 40.7893 81.3872 40.512 81.2699 40.224C81.1632 39.9253 81.0565 39.648 80.9499 39.392C80.8539 39.1253 80.7685 38.9013 80.6939 38.72C80.6192 38.528 80.5712 38.4 80.5499 38.336C80.5179 38.2507 80.4752 38.128 80.4219 37.968C80.3792 37.808 80.3259 37.6267 80.2619 37.424C80.1979 37.2213 80.1285 37.008 80.0539 36.784C79.9899 36.5493 79.9259 36.32 79.8619 36.096C79.7019 35.5733 79.5259 35.0027 79.3339 34.384C79.2805 34.3947 79.1045 34.4213 78.8059 34.464C78.5179 34.496 78.1925 34.5333 77.8299 34.576C77.4672 34.6187 77.1205 34.6613 76.7899 34.704C76.4592 34.736 76.2352 34.752 76.1179 34.752C75.8512 34.752 75.6805 34.7093 75.6059 34.624C75.5312 34.5387 75.4885 34.432 75.4779 34.304C75.4779 34.2187 75.4992 34.1333 75.5419 34.048C75.5845 33.952 75.6432 33.904 75.7179 33.904C75.8032 33.904 75.8725 33.92 75.9259 33.952C75.9685 33.9733 76.0272 33.984 76.1019 33.984C76.1232 33.984 76.2299 33.9733 76.4219 33.952C76.6245 33.9307 76.8592 33.904 77.1259 33.872C77.4032 33.84 77.6859 33.808 77.9739 33.776C78.2725 33.744 78.5339 33.7173 78.7579 33.696C78.8112 33.696 78.8645 33.696 78.9179 33.696C78.9819 33.6853 79.0405 33.6747 79.0939 33.664C79.1472 33.6533 79.2005 33.648 79.2539 33.648C79.2539 33.616 79.2699 33.5467 79.3019 33.44C79.3445 33.3227 79.3872 33.264 79.4299 33.264C79.5365 33.264 79.6219 33.3067 79.6859 33.392C79.7605 33.4667 79.8245 33.52 79.8779 33.552C79.9525 33.5413 80.0645 33.52 80.2139 33.488C80.3739 33.4453 80.5392 33.408 80.7099 33.376C80.8912 33.344 81.0619 33.3173 81.2219 33.296C81.3925 33.264 81.5365 33.2427 81.6539 33.232L83.5259 33.12C83.6859 33.1093 83.8672 33.0987 84.0699 33.088C84.2832 33.0667 84.4912 33.0453 84.6939 33.024C84.8965 33.0027 85.0725 32.9867 85.2219 32.976C85.3712 32.9547 85.4725 32.944 85.5259 32.944C85.6219 32.9547 85.7072 32.9867 85.7819 33.04C85.8565 33.0933 85.8939 33.152 85.8939 33.216Z" fill="white"/>
<path d="M4.00018 26.2997C15.0002 6.29967 21.0002 51.2997 25.4985 23.2987C29.9969 -4.70226 34.0002 73.2997 37.8767 10.101" stroke="url(#paint1_linear_2_9)" stroke-width="8"/>
<defs>
<linearGradient id="paint0_linear_2_9" x1="99" y1="26" x2="99" y2="4.50001" gradientUnits="userSpaceOnUse">
<stop stop-color="#045CAE"/>
<stop offset="0.5625" stop-color="#0295DC"/>
<stop offset="0.5626" stop-color="#0295DC"/>
<stop offset="1" stop-color="#00C2FF"/>
</linearGradient>
<linearGradient id="paint1_linear_2_9" x1="15" y1="16" x2="31" y2="32" gradientUnits="userSpaceOnUse">
<stop stop-color="#034E93"/>
<stop offset="0.473958" stop-color="#045CAE"/>
<stop offset="0.848958" stop-color="#00C2FF"/>
<stop offset="1" stop-color="#88E2FF"/>
</linearGradient>
</defs>
</svg>
