<svg width="193" height="75" viewBox="0 0 193 75" fill="none" xmlns="http://www.w3.org/2000/svg">
<rect x="6" width="188" height="70" rx="8" fill="#2f2f2f" fill-opacity="0.58"/>
<rect x="16" y="18" width="165" height="7" rx="3.5" fill="#fff"/>
<rect x="16" y="18" width="63" height="7" rx="3.5" fill="#045CAE"/>
<path d="M101.024 46.3667C102.346 47.1552 102.319 49.0796 100.975 49.8305L91.9026 54.8993C90.5586 55.6503 88.9056 54.6647 88.9273 53.1252L89.0737 42.7339C89.0954 41.1945 90.7755 40.2558 92.0978 41.0443L101.024 46.3667Z" fill="white"/>
<path d="M117.708 47.3941C118.369 47.7883 118.355 48.7505 117.683 49.126L111.635 52.5052C110.963 52.8807 110.137 52.3878 110.147 51.6181L110.245 44.6906C110.256 43.9209 111.096 43.4515 111.757 43.8458L117.708 47.3941Z" fill="#fff"/>
<path d="M71.7086 49.1262C71.0365 48.7507 71.0229 47.7886 71.6841 47.3943L77.6345 43.8457C78.2957 43.4514 79.1357 43.9207 79.1466 44.6904L79.2445 51.6179C79.2554 52.3877 78.429 52.8805 77.7569 52.5051L71.7086 49.1262Z" fill="#fff"/>
</svg>
